<svg width="30" height="31" viewBox="0 0 30 31" fill="none" xmlns="http://www.w3.org/2000/svg">
<rect width="29.75" height="30.3536" rx="5" fill="#50D5FF"/>
<path d="M15.6882 4.27007C15.4533 4.09473 15.1681 4 14.875 4C14.5819 4 14.2967 4.09473 14.0618 4.27007L4.42896 11.4609C3.61333 12.0693 4.0441 13.3652 5.06092 13.3652H24.6897C25.7071 13.3652 26.1373 12.0693 25.3223 11.4609L15.6882 4.27007ZM14.875 10.0417C14.5545 10.0417 14.2472 9.91436 14.0206 9.68776C13.794 9.46115 13.6667 9.15381 13.6667 8.83334C13.6667 8.51287 13.794 8.20552 14.0206 7.97892C14.2472 7.75231 14.5545 7.625 14.875 7.625C15.1955 7.625 15.5028 7.75231 15.7294 7.97892C15.956 8.20552 16.0833 8.51287 16.0833 8.83334C16.0833 9.15381 15.956 9.46115 15.7294 9.68776C15.5028 9.91436 15.1955 10.0417 14.875 10.0417ZM4 24.6933C4 22.9406 5.41979 21.5208 7.17188 21.5208H22.5781C24.3302 21.5208 25.75 22.9406 25.75 24.6927V25.599C25.75 26.0158 25.4117 26.3536 24.9948 26.3536H4.75521C4.33833 26.3542 4 26.0158 4 25.599V24.6927V24.6933ZM8.83333 20.3125H6.41667V14.5729H8.83333V20.3125ZM11.25 14.5729V20.3125H13.6667V14.5729H11.25ZM16.0833 14.5729V20.3125H18.5V14.5729H16.0833ZM20.9167 14.5729V20.3125H23.3333V14.5729H20.9167Z" fill="white"/>
</svg>
