<svg width="29" height="28" viewBox="0 0 29 28" fill="none" xmlns="http://www.w3.org/2000/svg">
<rect width="28.9988" height="28" rx="5" fill="#50D5FF"/>
<path d="M4 4H6V6H4V4Z" fill="white"/>
<path d="M22.9898 4H13.0088C11.8978 4 10.9988 4.899 10.9988 6.01V11.647L6.29681 16.289C6.15592 16.4283 6.05961 16.6064 6.02009 16.8006C5.98057 16.9947 5.99963 17.1963 6.07484 17.3796C6.15006 17.5629 6.27804 17.7197 6.44254 17.8302C6.60705 17.9407 6.80066 17.9998 6.99881 18V23C6.99881 23.2652 7.10417 23.5196 7.2917 23.7071C7.47924 23.8946 7.73359 24 7.99881 24H23.9988C24.264 24 24.5184 23.8946 24.7059 23.7071C24.8935 23.5196 24.9988 23.2652 24.9988 23V6.009C24.9988 4.899 24.1008 4 22.9898 4ZM14.9208 17.111V22H8.99881V16.432L11.9858 13.483L14.9208 16.486V17.111ZM16.9988 11H14.9988V9H16.9988V11ZM20.9988 19H18.9988V17H20.9988V19ZM20.9988 15H18.9988V13H20.9988V15ZM20.9988 11H18.9988V9H20.9988V11Z" fill="white"/>
</svg>
