<svg width="64" height="64" viewBox="0 0 64 64" fill="none" xmlns="http://www.w3.org/2000/svg">
<path d="M44.4 18H42.1C42.1 17 41.9 16 41.6 15C40.3 10.7 36.4 7.90001 31.9 7.90001C27.4 7.90001 23.6 10.8 22.2 15C21.9 16 21.7 17 21.7 18H19.4C19.4 16.7 19.6 15.5 20 14.3C20.8 11.8 22.3 9.60001 24.4 8.10001C26.6 6.50001 29.1 5.60001 31.8 5.60001C34.5 5.60001 37.1 6.50001 39.2 8.10001C41.3 9.70001 42.9 11.9 43.6 14.3C44.2 15.5 44.4 16.8 44.4 18Z" fill="#D3976E"/>
<path d="M29.9 12.4C27.4 7.4 22.5 4 16.8 4C8.6 4 2 11 2 19.7C2 23.7 3.4 27.4 5.8 30.1C5.8 30.1 11.8 14.4 29.9 12.4" fill="#FFDD7D"/>
<path d="M29.9 12.4C11.8 14.4 5.8 30.2 5.8 30.2C16.9 29.1 26.2 22 29.9 12.4" fill="#594640"/>
<path d="M34.1 12.4C36.6 7.4 41.5 4 47.2 4C55.4 4 62 11 62 19.7C62 23.7 60.6 27.4 58.2 30.1C58.2 30.1 52.2 14.4 34.1 12.4" fill="#FFDD7D"/>
<path d="M34.1 12.4C52.2 14.4 58.2 30.2 58.2 30.2C47.1 29.1 37.8 22 34.1 12.4" fill="#594640"/>
<path d="M42.4 60L39 58.4C40.3 55.3 39.7 54.2 38.8 52.7C37.8 51 36.3 48.6 38.3 43.9C38.9 42.5 38.6 42.1 37.8 40.8C36.8 39.1 35.4 36.8 36.7 32.5C38 28 35 22.7 35 22.6L38.1 20.6C38.3 20.9 42 27.5 40.2 33.7C39.4 36.3 40.1 37.3 40.9 38.7C41.8 40.2 43 42.2 41.7 45.5C40.5 48.3 41.1 49.2 42 50.7C43 52.5 44.5 55 42.4 60Z" fill="#42ADE2"/>
<path d="M24.3 59.9C22.1 54.9 23.5 52.4 24.5 50.6C25.4 49.1 25.9 48.2 24.6 45.4C23.2 42.2 24.3 40.1 25.2 38.6C26 37.2 26.6 36.1 25.8 33.6C23.8 27.4 27.4 20.7 27.6 20.5L30.8 22.5L29.2 21.5L30.8 22.5C30.8 22.6 27.9 27.9 29.3 32.4C30.7 36.7 29.3 39 28.4 40.7C27.7 42 27.4 42.5 28 43.8C30.1 48.5 28.7 50.9 27.7 52.7C26.8 54.2 26.2 55.3 27.6 58.4L24.3 59.9" fill="#ED4C5C"/>
<path d="M5.8 57.5C5 52.1 7 50.1 8.5 48.5C9.7 47.3 10.4 46.5 10 43.5C9.4 40 11.1 38.3 12.3 37.1C13.5 35.9 14.3 35.1 14.2 32.4C13.9 25.9 19.1 20.4 19.3 20.2L21.9 22.9L20.6 21.5L21.9 22.9C21.9 22.9 17.7 27.4 17.9 32.1C18.1 36.6 16.2 38.5 14.9 39.9C13.9 41 13.5 41.3 13.7 42.8C14.5 47.8 12.6 49.8 11.1 51.3C9.9 52.6 9 53.4 9.6 56.8L5.8 57.5" fill="#C28FEF"/>
<path d="M59.5 57.5C60.3 52.1 58.3 50.1 56.8 48.5C55.6 47.3 54.9 46.5 55.3 43.5C55.9 40 54.2 38.3 53 37.1C51.8 35.9 51 35.1 51.1 32.4C51.4 25.9 46.2 20.4 46 20.2L43.4 22.9L44.7 21.5L43.4 22.9C43.4 22.9 47.6 27.4 47.4 32.1C47.2 36.6 49.1 38.5 50.4 39.9C51.4 41 51.8 41.3 51.6 42.8C50.8 47.8 52.8 49.8 54.2 51.3C55.4 52.6 56.3 53.4 55.7 56.8L59.5 57.5" fill="#83BF4F"/>
<path d="M18.573 35.17L21.402 32.342L24.23 35.171L21.402 37.999L18.573 35.17Z" fill="#42ADE2"/>
<path d="M46.684 55.966L49.512 53.138L52.34 55.966L49.512 58.794L46.684 55.966Z" fill="#42ADE2"/>
<path d="M15.943 44.987L18.772 42.159L21.6 44.987L18.772 47.816L15.943 44.987Z" fill="#83BF4F"/>
<path d="M29.801 28.827L32.63 26L35.458 28.828L32.63 31.657L29.801 28.827Z" fill="#83BF4F"/>
<path d="M13.107 56.02L15.935 53.192L18.764 56.02L15.935 58.849L13.107 56.02Z" fill="#ED4C5C"/>
<path d="M44.23 45.484L47.059 42.655L49.887 45.484L47.059 48.312L44.23 45.484Z" fill="#ED4C5C"/>
<path d="M29.763 55.542L32.591 52.714L35.419 55.542L32.591 58.371L29.763 55.542Z" fill="#C28FEF"/>
<path d="M41.381 35.623L44.209 32.795L47.038 35.623L44.209 38.451L41.381 35.623Z" fill="#C28FEF"/>
<path d="M30.572 43.062L33.401 40.234L36.229 43.062L33.401 45.891L30.572 43.062Z" fill="#ED4C5C"/>
</svg>
