<svg width="28" height="28" viewBox="0 0 28 28" fill="none" xmlns="http://www.w3.org/2000/svg">
<g clip-path="url(#clip0)">
<path fill-rule="evenodd" clip-rule="evenodd" d="M14 1.76471C6.72 1.76471 0.823532 7.66118 0.823532 14.9412C0.823532 20.7718 4.5953 25.6965 9.83294 27.4424C10.4918 27.5577 10.7388 27.1624 10.7388 26.8165C10.7388 26.5035 10.7224 25.4659 10.7224 24.3624C7.41177 24.9718 6.5553 23.5553 6.29177 22.8141C6.14353 22.4353 5.50118 21.2659 4.94118 20.9529C4.48 20.7059 3.82118 20.0965 4.92471 20.08C5.96236 20.0635 6.70353 21.0353 6.95059 21.4306C8.13647 23.4235 10.0306 22.8635 10.7882 22.5177C10.9035 21.6612 11.2494 21.0847 11.6282 20.7553C8.69647 20.4259 5.63294 19.2894 5.63294 14.2494C5.63294 12.8165 6.14353 11.6306 6.98353 10.7082C6.85177 10.3788 6.39059 9.02824 7.1153 7.21647C7.1153 7.21647 8.21883 6.87059 10.7388 8.56706C11.7929 8.27059 12.9129 8.12236 14.0329 8.12236C15.1529 8.12236 16.2729 8.27059 17.3271 8.56706C19.8471 6.85412 20.9506 7.21647 20.9506 7.21647C21.6753 9.02824 21.2141 10.3788 21.0824 10.7082C21.9224 11.6306 22.4329 12.8 22.4329 14.2494C22.4329 19.3059 19.3529 20.4259 16.4212 20.7553C16.8988 21.1671 17.3106 21.9577 17.3106 23.1929C17.3106 24.9553 17.2941 26.3718 17.2941 26.8165C17.2941 27.1624 17.5412 27.5741 18.2 27.4424C20.8157 26.5592 23.0887 24.8781 24.6989 22.6355C26.3092 20.393 27.1757 17.702 27.1765 14.9412C27.1765 7.66118 21.28 1.76471 14 1.76471Z" fill="white"/>
</g>
<defs>
<clipPath id="clip0">
<rect width="26.3529" height="26.3529" fill="white" transform="translate(0.823532 0.823517)"/>
</clipPath>
</defs>
</svg>
