<svg width="471" height="296" viewBox="0 0 471 296" fill="none" xmlns="http://www.w3.org/2000/svg">
<path d="M205.58 4.21849L167.659 166.307L405.376 247.563L443.296 85.4737L205.58 4.21849Z" fill="#02454D"/>
<path d="M209.686 13.3776C210.774 13.3776 211.655 12.3122 211.655 10.9979C211.655 9.68361 210.774 8.61816 209.686 8.61816C208.599 8.61816 207.718 9.68361 207.718 10.9979C207.718 12.3122 208.599 13.3776 209.686 13.3776Z" fill="#6C63FF"/>
<path d="M215.749 15.4498C216.836 15.4498 217.718 14.3844 217.718 13.0701C217.718 11.7558 216.836 10.6904 215.749 10.6904C214.661 10.6904 213.78 11.7558 213.78 13.0701C213.78 14.3844 214.661 15.4498 215.749 15.4498Z" fill="#6C63FF"/>
<path d="M221.811 17.522C222.898 17.522 223.78 16.4566 223.78 15.1423C223.78 13.828 222.898 12.7625 221.811 12.7625C220.724 12.7625 219.842 13.828 219.842 15.1423C219.842 16.4566 220.724 17.522 221.811 17.522Z" fill="#6C63FF"/>
<path d="M331.739 107.07C328.556 106.343 325.283 106.436 322.133 107.344C323.05 103.536 323.281 99.5357 322.812 95.6111C319.567 97.0306 316.632 99.3206 314.225 102.309C313.47 98.2397 311.961 94.4305 309.812 91.1676C307.711 94.2137 306.175 97.7685 305.307 101.593C303.017 98.825 300.269 96.6733 297.242 95.2783C297.242 95.2783 295.809 104.092 299.261 111.325C302.333 117.762 308.236 120.775 309.497 121.36L309.527 121.402L309.543 121.381C309.671 121.439 309.743 121.469 309.743 121.469C309.743 121.469 309.77 121.3 309.807 120.998C309.83 120.964 309.853 120.93 309.878 120.892C309.883 120.94 309.887 120.984 309.892 121.027C309.793 121.308 309.743 121.469 309.743 121.469C309.743 121.469 309.817 121.489 309.951 121.52L309.955 121.549L309.999 121.531C311.328 121.831 317.661 123.002 323.067 119.462C329.141 115.486 331.739 107.07 331.739 107.07Z" fill="#6C63FF"/>
<path d="M319.958 84.5546C322.785 84.5546 325.077 81.7844 325.077 78.3672C325.077 74.9501 322.785 72.1799 319.958 72.1799C317.131 72.1799 314.839 74.9501 314.839 78.3672C314.839 81.7844 317.131 84.5546 319.958 84.5546Z" fill="#6C63FF"/>
<path d="M384.23 158.701L230.398 106.119L229.452 110.165L383.284 162.747L384.23 158.701Z" fill="#6C63FF"/>
<path d="M266.605 140.258L240.082 131.192L232.582 163.251L259.105 172.317L266.605 140.258Z" fill="#6C63FF"/>
<path d="M315.861 157.095L289.339 148.029L281.838 180.088L308.361 189.154L315.861 157.095Z" fill="#6C63FF"/>
<path d="M365.118 173.931L338.595 164.865L331.095 196.925L357.618 205.991L365.118 173.931Z" fill="#6C63FF"/>
<path d="M254.195 177.564L234.492 170.829L233.849 173.577L253.552 180.312L254.195 177.564Z" fill="#6C63FF"/>
<path d="M303.451 194.4L283.748 187.666L283.106 190.414L302.808 197.148L303.451 194.4Z" fill="#6C63FF"/>
<path d="M352.708 211.237L333.005 204.502L332.362 207.25L352.065 213.985L352.708 211.237Z" fill="#6C63FF"/>
<path d="M134.369 229.035C207.144 229.035 266.14 226.399 266.14 223.146C266.14 219.894 207.144 217.257 134.369 217.257C61.5941 217.257 2.59839 219.894 2.59839 223.146C2.59839 226.399 61.5941 229.035 134.369 229.035Z" fill="#D0CDE1"/>
<path d="M368.46 295.775C425.091 295.775 471 293.138 471 289.886C471 286.634 425.091 283.997 368.46 283.997C311.829 283.997 265.92 286.634 265.92 289.886C265.92 293.138 311.829 295.775 368.46 295.775Z" fill="#D0CDE1"/>
<path d="M318.168 244.178H347.751V259.132H330.54V274.085H347.752V289.038H318.168V244.178ZM353.668 244.178H383.251V257.181H366.04V259.781H383.251V289.689H353.669V276.034H370.881V273.434H353.667V244.178H353.668ZM389.169 244.178H418.752V257.181H401.54V259.781H418.752V289.689H389.169V276.034H406.38V273.434H389.169V244.178H389.169Z" fill="#FFB8B8"/>
<path d="M59.6169 175.756H71.8207V190.33H82.9846V175.756H95.1891V219.889H82.9853V205.111H71.8214V219.889H59.6177V175.756H59.6169ZM111.237 190.391H100.495V175.756H134.191V190.391H123.443V219.889H111.239V190.391H111.237ZM139.539 175.756H152.264L160.092 191.263L167.912 175.756H180.642V219.889H168.488V198.014L160.092 213.706H159.881L151.48 198.014V219.889H139.539V175.756ZM186.715 175.756H198.923V205.302H216.084V219.889H186.714V175.756H186.715Z" fill="#FFB8B8"/>
<path d="M38.0622 206.092L37.0609 219.814L45.0739 219.006V207.303L38.0622 206.092Z" fill="#FFB8B8"/>
<path d="M30.7169 206.092L31.7186 219.814L23.7057 219.006V207.303L30.7169 206.092Z" fill="#FFB8B8"/>
<path d="M51.7515 100.758C51.7515 100.758 54.4225 120.13 54.4225 122.955C54.4225 125.78 53.4209 143.941 51.7515 147.573C50.0821 151.205 49.7482 152.82 50.416 154.434C51.0837 156.048 50.7499 155.645 50.416 156.855C50.0821 158.066 49.4143 157.663 50.416 159.277C50.825 159.988 51.0442 160.833 51.0442 161.698C51.0442 162.564 50.825 163.409 50.416 164.12C49.7482 165.331 51.7515 198.02 49.0805 200.442C46.4094 202.863 45.7416 210.935 45.7416 210.935L37.0607 209.724V200.845C37.0607 200.845 35.0575 194.388 36.393 190.352C37.7285 186.317 38.3963 164.927 38.3963 164.927C38.3963 164.927 38.0624 162.909 38.3963 161.698C38.7302 160.488 38.3963 159.68 37.7285 159.277C37.0608 158.873 36.7269 157.259 36.7269 157.259L35.7252 127.798L31.7187 156.855C31.7187 156.855 35.7252 196.406 31.7187 201.653V210.935H23.0378L24.3733 200.845C24.3733 200.845 21.7022 191.563 23.0378 189.545C24.3733 187.527 19.0312 155.241 19.699 154.03C20.3667 152.82 20.0328 152.416 19.699 151.609C19.3651 150.802 18.3634 149.995 18.6973 149.187C19.0312 148.38 18.6973 146.766 18.6973 146.766C18.6973 146.766 12.3536 108.83 15.3585 105.197C18.3634 101.565 51.7515 100.758 51.7515 100.758Z" fill="#1D2223"/>
<path d="M39.064 214.567C39.064 214.567 39.7318 210.697 45.0739 212.026C45.0739 212.026 46.4094 215.374 46.4094 216.989C46.4094 218.603 47.7449 229.499 47.7449 229.499C47.7449 229.499 53.087 240.396 46.4094 240.396C39.7318 240.396 37.3946 237.571 37.0607 234.746C36.7269 231.921 37.3946 231.114 36.0591 229.903C34.7236 228.692 34.0558 228.692 34.3897 227.078C34.7236 225.464 35.3914 217.392 35.3914 217.392C35.3914 217.392 35.7252 211.338 37.5616 212.953L39.3979 214.567" fill="#2F2E41"/>
<path d="M29.7154 214.567C29.7154 214.567 29.0476 210.697 23.7055 212.026C23.7055 212.026 22.37 215.374 22.37 216.989C22.37 218.603 21.0345 229.499 21.0345 229.499C21.0345 229.499 15.6924 240.396 22.37 240.396C29.0476 240.396 31.3848 237.571 31.7187 234.746C32.0525 231.921 31.3848 231.114 32.7203 229.903C34.0558 228.692 34.7236 228.692 34.3897 227.078C34.0558 225.464 33.3881 217.392 33.3881 217.392C33.3881 217.392 33.0542 211.338 31.2178 212.953L29.3815 214.567" fill="#2F2E41"/>
<path d="M39.3979 26.4998C44.3766 26.4998 48.4127 21.6212 48.4127 15.6032C48.4127 9.58512 44.3766 4.70654 39.3979 4.70654C34.4192 4.70654 30.3831 9.58512 30.3831 15.6032C30.3831 21.6212 34.4192 26.4998 39.3979 26.4998Z" fill="#FFB8B8"/>
<path d="M32.0525 17.2175C32.0525 17.2175 28.3798 34.5713 27.7121 34.9749C27.0443 35.3784 43.0706 36.9928 43.0706 36.9928C43.0706 36.9928 39.064 22.0604 43.0706 19.6389L32.0525 17.2175Z" fill="#FFB8B8"/>
<path d="M29.707 27.7928L29.7066 27.7905L18.6973 36.9928L20.7006 109.233C20.7006 109.233 35.3914 107.215 38.7302 107.619C42.069 108.023 52.7532 103.987 52.7532 103.987L48.0733 36.1054C47.9819 34.779 47.5009 33.5359 46.7173 32.6007C45.9338 31.6656 44.8993 31.1001 43.8009 31.0065L41.7957 30.8356C41.7957 30.8356 39.7925 36.8305 33.7656 33.7377C32.7495 33.2034 31.8521 32.3864 31.1468 31.3532C30.4415 30.3201 29.9482 29.1001 29.707 27.7928V27.7928Z" fill="#D0CDE1"/>
<path d="M29.9733 27.1339L16.3602 34.9749L13.6891 81.3863C13.6891 81.3863 8.34702 109.233 12.6875 117.305C17.0279 125.376 24.3733 126.183 24.3733 126.183C24.3733 126.183 34.0559 79.772 31.3848 64.0325C28.7138 48.293 29.9733 27.1339 29.9733 27.1339Z" fill="#02454D"/>
<path d="M4.34046 97.1259V103.18C4.34046 103.18 2.33718 116.498 8.68091 116.094C15.0246 115.69 12.0197 101.565 12.0197 101.565L10.0164 97.1259H4.34046Z" fill="#FFB8B8"/>
<path d="M63.1034 109.233L62.4357 116.094C62.4357 116.094 65.7745 129.816 59.4307 130.219C53.087 130.623 57.6918 116.178 57.6918 116.178L59.7646 108.426L63.1034 109.233Z" fill="#FFB8B8"/>
<path d="M41.5947 29.4251C47.6784 31.2364 53.3158 34.7787 58.0375 39.7569L58.0952 39.8178L53.4209 69.6825L52.7531 80.5792C52.7531 80.5792 65.1067 133.851 50.7498 126.183C50.7498 126.183 38.3963 79.772 40.0657 58.3824C41.7351 36.9928 41.5947 29.4251 41.5947 29.4251Z" fill="#02454D"/>
<path d="M53.7548 39.4143C54.0887 39.0107 58.0952 39.9751 58.0952 39.9751C58.0952 39.9751 65.4406 71.2969 65.4406 76.5434C65.4406 81.7899 66.4423 111.655 66.4423 111.655L57.6289 112.729L50.4951 71.2342L53.7548 39.4143Z" fill="#02454D"/>
<path d="M18.6973 34.9749H16.3601C16.3601 34.9749 9.68253 38.2035 9.34865 41.8357C9.01477 45.4679 0 82.1935 0 82.1935L2.33716 100.758L11.0181 99.1438L12.6875 78.5613L21.3683 55.961L18.6973 34.9749Z" fill="#02454D"/>
<path d="M37.6466 18.6443L37.9922 15.7319C38.0728 15.0531 38.4014 14.1606 38.9478 14.3452C39.4125 14.5022 40.425 14.9831 40.5945 14.8379C41.2294 14.2943 42.19 15.2448 42.8576 14.7619C43.1373 14.5596 43.3197 14.1262 43.6448 14.0972C43.8629 14.1141 44.0684 14.2266 44.2227 14.4137C44.656 14.8692 45.1666 15.2045 45.7186 15.396C45.9955 15.4871 46.2876 15.4871 46.5645 15.3959C46.8414 15.3046 47.0931 15.1255 47.2935 14.8771C47.3642 14.7448 47.4596 14.6343 47.5719 14.5544C47.7038 14.5085 47.8446 14.5163 47.9724 14.5767L49.678 15.138C49.9289 14.0386 49.9804 12.8867 49.8291 11.761C49.6777 10.6353 49.3271 9.56241 48.8012 8.61559C48.1092 7.4803 47.2704 6.48728 46.3169 5.67476C45.2606 4.70344 44.1706 3.78983 43.0467 2.93395C41.8551 1.91493 40.5027 1.20369 39.0736 0.844619C37.6353 0.580606 36.0247 1.05295 35.12 2.4301C34.6944 2.05781 34.3746 1.53551 34.2043 0.934817C34.1028 1.04638 34.0229 1.1835 33.9701 1.3365C33.9173 1.48949 33.8929 1.65463 33.8986 1.82026C33.9044 1.9859 33.9402 2.14798 34.0034 2.29507C34.0667 2.44216 34.1559 2.57068 34.2647 2.67155L32.8222 1.55809C32.4167 2.07275 33.209 3.006 32.8635 3.58108C32.759 3.72332 32.6249 3.82915 32.4751 3.88758C31.6919 4.25658 30.974 4.80273 30.36 5.49675C29.5826 6.5673 29.0134 7.83469 28.6942 9.20588C27.8346 12.1867 27.2099 15.6051 28.4312 18.3954C28.5696 18.7117 30.3972 23.9328 30.6407 24.1364C31.4638 24.8246 30.928 23.159 31.5178 24.1364C31.9803 24.9028 31.8937 21.9694 32.5811 22.6133C32.8506 22.8464 33.1702 22.98 33.5012 22.998C33.8322 23.016 34.1604 22.9176 34.4461 22.7147C34.7311 22.4758 34.6393 21.1493 34.4855 19.9311C34.4561 19.6991 34.4742 19.4619 34.5383 19.2403C34.6024 19.0187 34.7105 18.8195 34.853 18.6601C34.9956 18.5007 35.1684 18.3861 35.3561 18.3261C35.5439 18.2662 35.741 18.2629 35.93 18.3165C36.7861 18.5599 37.6319 18.7679 37.6466 18.6443Z" fill="#2F2E41"/>
<path opacity="0.2" d="M54.5897 75.9379L58.2621 112.664H55.925L54.5897 75.9379Z" fill="black"/>
<path opacity="0.2" d="M15.8593 61.8127L14.0025 75.9379L17.5287 61.8127H16.527H15.8593Z" fill="black"/>
</svg>
