<svg width="64" height="64" viewBox="0 0 64 64" fill="none" xmlns="http://www.w3.org/2000/svg">
<path d="M31.8 27.1C31.8 27.1 27.4 28 31 20.5C33.6 15.1 33.3 8.79999 31 5.49999C27.2 0.199992 19.9 1.89999 20.7 4.99999C23.3 15.5 17.4 18.7 14.4 25.3C11.3 32 11.6 41.6 13 50.1C13.9 55.4 16.2 62 24.5 62H36L31.8 27.1Z" fill="#FFDD67"/>
<path d="M25.8 60.5C17.5 60.5 15.7 53.9 14.8 48.6C13.4 40.1 13.2 33.3 15.9 26.4C18.9 18.9 22 18.7 22 3.9C22 3.2 22.4 2.7 22.8 2.3C21.4 2.8 20.6 3.6 20.6 4.8C20.6 15.9 17.5 18.6 14.5 25.3C11.3 32 11.6 41.6 13 50.1C13.9 55.4 16.2 62 24.5 62H36V60.5H25.8" fill="#EBA352"/>
<path d="M46 35.8H31.8C26.8 35.8 26.8 27.1 31.8 27.1H46C51 27.1 51 35.8 46 35.8Z" fill="#FFDD67"/>
<path d="M47.1 34.4H32.9C29.5 34.4 28.5 30.4 29.6 27.9C26.9 30 27.7 35.9 31.7 35.9H46C47.6 35.9 48.7 35 49.3 33.7C48.7 34.1 48 34.4 47.1 34.4" fill="#EBA352"/>
<path d="M47.5 44.6H30.5C24.5 44.6 24.5 35.9 30.5 35.9H47.6C53.5 35.9 53.5 44.6 47.5 44.6" fill="#FFDD67"/>
<path d="M48.9 43.1H31.8C27.8 43.1 26.5 39.1 27.9 36.6C24.7 38.7 25.6 44.6 30.5 44.6H47.6C49.5 44.6 50.8 43.7 51.5 42.4C50.8 42.8 49.9 43.1 48.9 43.1" fill="#EBA352"/>
<path d="M45.9 53.3H31.5C26.5 53.3 26.5 44.6 31.5 44.6H45.9C51 44.6 51 53.3 45.9 53.3Z" fill="#FFDD67"/>
<path d="M47.1 51.8H32.6C29.2 51.8 28.1 47.8 29.3 45.2C26.6 47.3 27.3 53.2 31.5 53.2H45.9C47.5 53.2 48.6 52.3 49.2 51C48.7 51.6 47.9 51.8 47.1 51.8" fill="#EBA352"/>
<path d="M44.4 62H35.1C29.7 62 29.7 53.3 35.1 53.3H44.4C49.8 53.3 49.8 62 44.4 62" fill="#FFDD67"/>
<path d="M45.6 60.6H36.3C32.7 60.6 31.5 56.6 32.8 54C29.9 56.1 30.7 62 35.1 62H44.4C46.2 62 47.3 61.1 47.9 59.8C47.3 60.3 46.5 60.6 45.6 60.6" fill="#EBA352"/>
</svg>
