<svg width="64" height="64" viewBox="0 0 64 64" fill="none" xmlns="http://www.w3.org/2000/svg">
<path d="M31.813 63.63C49.3828 63.63 63.626 49.3868 63.626 31.817C63.626 14.2472 49.3828 0.0039978 31.813 0.0039978C14.2432 0.0039978 0 14.2472 0 31.817C0 49.3868 14.2432 63.63 31.813 63.63Z" fill="#FBBF67"/>
<path d="M50.2 51.42C50.2 58.851 40.17 50.524 31.317 50.524C22.46 50.524 12.432 58.85 12.432 51.42C12.432 43.993 22.462 35.962 31.317 35.962C40.172 35.962 50.2 43.992 50.2 51.42Z" fill="#633D19"/>
<path d="M44.866 43.601C41.659 39.805 36.282 36.894 31.313 36.894C26.342 36.894 20.965 39.805 17.758 43.601H44.868" fill="white"/>
<path d="M11.01 14.649C16.929 15.062 22.297 12.629 26.01 8.024C27.623 6.024 24.794 3.159 23.165 5.179C20.047 9.045 15.988 10.971 11.007 10.625C8.41699 10.448 8.43399 14.472 11.007 14.645" fill="#633D19"/>
<path d="M53.33 14.649C47.41 15.062 42.043 12.629 38.33 8.024C36.718 6.024 39.547 3.159 41.175 5.179C44.293 9.045 48.353 10.971 53.333 10.625C55.925 10.448 55.906 14.472 53.333 14.645" fill="#633D19"/>
<path d="M29.06 27.356C25.995 22.316 19.779 19.22 13.885 19.038C11.847 18.975 11.853 22.075 13.885 22.138C16.714 22.224 19.661 23.174 22.125 24.769C22.003 24.973 21.84 27.327 21.921 27.518C19.027 27.862 16.115 28.109 13.268 28.775C11.288 29.239 12.128 32.229 14.109 31.765C18.718 30.682 23.503 30.716 28.119 29.634C29.109 29.402 29.571 28.197 29.062 27.356" fill="#633D19"/>
<path d="M35.459 29.634C40.074 30.717 44.856 30.683 49.469 31.765C51.447 32.229 52.288 29.239 50.31 28.775C47.462 28.109 44.551 27.861 41.655 27.518C41.738 27.328 41.573 24.974 41.453 24.769C43.915 23.174 46.864 22.225 49.691 22.138C51.722 22.075 51.73 18.975 49.691 19.038C43.798 19.221 37.581 22.315 34.517 27.356C34.008 28.197 34.468 29.402 35.46 29.634" fill="#633D19"/>
</svg>
